HIERARCHY
ROOT hip
{
  OFFSET 0 0 0
  CHANNELS 6 Xposition Yposition Zposition Zrotation Yrotation Xrotation
  JOINT abdomen
  {
    OFFSET 0 20.6881 -0.73152
    CHANNELS 3 Zrotation Xrotation Yrotation
    JOINT chest
    {
      OFFSET 0 11.7043 -0.48768
      CHANNELS 3 Zrotation Xrotation Yrotation
      JOINT neck
      {
        OFFSET 0 22.1894 -2.19456
        CHANNELS 3 Zrotation Xrotation Yrotation
        JOINT head
        {
          OFFSET -0.24384 7.07133 1.2192
          CHANNELS 3 Zrotation Xrotation Yrotation
          JOINT leftEye
          {
            OFFSET 4.14528 8.04674 8.04672
            CHANNELS 3 Zrotation Xrotation Yrotation
            End Site
            {
              OFFSET 1 0 0
            }
          }
          JOINT rightEye
          {
            OFFSET -3.6576 8.04674 8.04672
            CHANNELS 3 Zrotation Xrotation Yrotation
            End Site
            {
              OFFSET 1 0 0
            }
          }
        }
      }
      JOINT rCollar
      {
        OFFSET -2.68224 19.2634 -4.8768
        CHANNELS 3 Zrotation Xrotation Yrotation
        JOINT rShldr
        {
          OFFSET -8.77824 -1.95073 1.46304
          CHANNELS 3 Zrotation Xrotation Yrotation
          JOINT rForeArm
          {
            OFFSET -28.1742 -1.7115 0.48768
            CHANNELS 3 Zrotation Xrotation Yrotation
            JOINT rHand
            {
              OFFSET -22.5879 0.773209 7.07136
              CHANNELS 3 Zrotation Xrotation Yrotation
              JOINT rThumb1
              {
                OFFSET -1.2192 -0.487915 3.41376
                CHANNELS 3 Zrotation Xrotation Yrotation
                JOINT rThumb2
                {
                  OFFSET -3.37035 -0.52449 3.41376
                  CHANNELS 3 Zrotation Xrotation Yrotation
                  End Site
                  {
                    OFFSET -1.78271 -1.18214 1.43049
                  }
                }
              }
              JOINT rIndex1
              {
                OFFSET -7.75947 0.938293 5.60832
                CHANNELS 3 Zrotation Xrotation Yrotation
                JOINT rIndex2
                {
                  OFFSET -2.54057 -0.884171 1.56538
                  CHANNELS 3 Zrotation Xrotation Yrotation
                  End Site
                  {
                    OFFSET -1.62519 -0.234802 1.16502
                  }
                }
              }
              JOINT rMid1
              {
                OFFSET -8.24714 1.18213 3.41376
                CHANNELS 3 Zrotation Xrotation Yrotation
                JOINT rMid2
                {
                  OFFSET -3.10165 -0.590103 1.0647
                  CHANNELS 3 Zrotation Xrotation Yrotation
                  End Site
                  {
                    OFFSET -2.48547 -0.328903 0.83742
                  }
                }
              }
              JOINT rRing1
              {
                OFFSET -8.82822 0.546677 1.51678
                CHANNELS 3 Zrotation Xrotation Yrotation
                JOINT rRing2
                {
                  OFFSET -2.60934 -0.819778 -0.0198488
                  CHANNELS 3 Zrotation Xrotation Yrotation
                  End Site
                  {
                    OFFSET -2.33842 -0.294052 0.168128
                  }
                }
              }
              JOINT rPinky1
              {
                OFFSET -8.27202 -0.0477905 -0.4584
                CHANNELS 3 Zrotation Xrotation Yrotation
                JOINT rPinky2
                {
                  OFFSET -1.82734 -0.647385 -0.700984
                  CHANNELS 3 Zrotation Xrotation Yrotation
                  End Site
                  {
                    OFFSET -1.69225 -0.51767 -0.607171
                  }
                }
              }
            }
          }
        }
      }
      JOINT lCollar
      {
        OFFSET 2.68224 19.2634 -4.8768
        CHANNELS 3 Zrotation Xrotation Yrotation
        JOINT lShldr
        {
          OFFSET 8.77824 -1.95073 1.46304
          CHANNELS 3 Zrotation Xrotation Yrotation
          JOINT lForeArm
          {
            OFFSET 28.1742 -1.7115 0.48768
            CHANNELS 3 Zrotation Xrotation Yrotation
            JOINT lHand
            {
              OFFSET 22.5879 0.773209 7.07136
              CHANNELS 3 Zrotation Xrotation Yrotation
              JOINT lThumb1
              {
                OFFSET 1.2192 -0.487915 3.41376
                CHANNELS 3 Zrotation Xrotation Yrotation
                JOINT lThumb2
                {
                  OFFSET 3.37035 -0.52449 3.41376
                  CHANNELS 3 Zrotation Xrotation Yrotation
                  End Site
                  {
                    OFFSET 1.78271 -1.18214 1.43049
                  }
                }
              }
              JOINT lIndex1
              {
                OFFSET 7.75947 0.938293 5.60832
                CHANNELS 3 Zrotation Xrotation Yrotation
                JOINT lIndex2
                {
                  OFFSET 2.54057 -0.884171 1.56538
                  CHANNELS 3 Zrotation Xrotation Yrotation
                  End Site
                  {
                    OFFSET 1.62519 -0.234802 1.16502
                  }
                }
              }
              JOINT lMid1
              {
                OFFSET 8.24714 1.18213 3.41376
                CHANNELS 3 Zrotation Xrotation Yrotation
                JOINT lMid2
                {
                  OFFSET 3.10165 -0.590103 1.0647
                  CHANNELS 3 Zrotation Xrotation Yrotation
                  End Site
                  {
                    OFFSET 2.48547 -0.328903 0.83742
                  }
                }
              }
              JOINT lRing1
              {
                OFFSET 8.82822 0.546677 1.51678
                CHANNELS 3 Zrotation Xrotation Yrotation
                JOINT lRing2
                {
                  OFFSET 2.60934 -0.819778 -0.0198488
                  CHANNELS 3 Zrotation Xrotation Yrotation
                  End Site
                  {
                    OFFSET 2.33842 -0.294052 0.168128
                  }
                }
              }
              JOINT lPinky1
              {
                OFFSET 8.27202 -0.0477905 -0.4584
                CHANNELS 3 Zrotation Xrotation Yrotation
                JOINT lPinky2
                {
                  OFFSET 1.82734 -0.647385 -0.700984
                  CHANNELS 3 Zrotation Xrotation Yrotation
                  End Site
                  {
                    OFFSET 1.69225 -0.51767 -0.607171
                  }
                }
              }
            }
          }
        }
      }
    }
  }
  JOINT rButtock
  {
    OFFSET -8.77824 4.35084 1.2192
    CHANNELS 3 Zrotation Xrotation Yrotation
    JOINT rThigh
    {
      OFFSET 0 -1.70687 -2.19456
      CHANNELS 3 Zrotation Xrotation Yrotation
      JOINT rShin
      {
        OFFSET 0 -36.8199 0.73152
        CHANNELS 3 Zrotation Xrotation Yrotation
        JOINT rFoot
        {
          OFFSET 0.73152 -45.1104 -5.12064
          CHANNELS 3 Zrotation Xrotation Yrotation
          End Site
          {
            OFFSET -1.1221 -3.69964 12.103
          }
        }
      }
    }
  }
  JOINT lButtock
  {
    OFFSET 8.77824 4.35084 1.2192
    CHANNELS 3 Zrotation Xrotation Yrotation
    JOINT lThigh
    {
      OFFSET 0 -1.70687 -2.19456
      CHANNELS 3 Zrotation Xrotation Yrotation
      JOINT lShin
      {
        OFFSET 0 -36.8199 0.73152
        CHANNELS 3 Zrotation Xrotation Yrotation
        JOINT lFoot
        {
          OFFSET -0.73152 -45.1104 -5.12064
          CHANNELS 3 Zrotation Xrotation Yrotation
          End Site
          {
            OFFSET 1.1221 -3.69964 12.103
          }
        }
      }
    }
  }
}
MOTION
Frames:	5
Frame Time:	0.00833333
4.30818 62.2503 -33.5801 0.0 0.0 0.0 -1.20509 -0.00379175 -0.0330402 -0.332175 -0.0022825 -0.0575394 1.44552e-14 -7.95139e-16 -2.98177e-16 4.27853e-14 3.18055e-15 -9.20932e-16 -0.0 0.0 0.0 -0.0 0.0 0.0 7.15543e-15 4.73667e-17 4.96962e-17 1.49884e-13 8.94531e-16 -1.59028e-15 2.5684e-12 -7.32124e-13 -7.95139e-14 2.93613e-11 9.41643e-13 -5.66139e-13 6.92689e-11 4.53263e-13 -1.39944e-12 1.19619e-10 7.79236e-13 -2.43312e-12 6.92749e-11 4.52036e-13 -1.41217e-12 7.73091 5.47488 0.417314 6.92685e-11 4.52732e-13 -1.40262e-12 2.90554 0.965183 0.102902 6.92756e-11 4.53328e-13 -1.4074e-12 10.2786 0.731801 0.0259123 6.92651e-11 4.56807e-13 -1.41217e-12 2.22167 -0.733487 -0.20892 7.05815e-15 4.60078e-17 -2.48481e-16 1.4679e-13 8.19987e-16 -3.18055e-15 2.56432e-12 7.99711e-13 -7.31528e-14 2.93871e-11 -5.93397e-13 -5.725e-13 6.93139e-11 4.47319e-13 -1.40581e-12 1.19713e-10 7.72875e-13 -2.41484e-12 6.93059e-11 4.51241e-13 -1.3899e-12 -7.73091 5.47488 -0.417314 6.93142e-11 4.47265e-13 -1.40899e-12 -2.90554 0.965183 -0.102902 6.93004e-11 4.48061e-13 -1.40183e-12 -10.2786 0.731801 -0.0259123 6.93174e-11 4.48061e-13 -1.40581e-12 -2.22167 -0.733487 0.20892 -2.03217e-16 0.0 -3.88251e-19 -0.399109 -1.9209 -0.0104417 -0.0093509 -2.07854 -0.0772789 -0.514757 3.9968 0.140686 2.03217e-16 0.0 3.88251e-19 -1.43445 -5.89292 0.127779 -0.00094433 5.11634 -0.0408117 0.531773 0.77406 -0.0764557
3.59054 63.2636 -26.7014 -10.6663 6.8477 -21.2177 1.57507 7.13703 0.0157749 -0.280937 -2.35883 0.0966517 -1.03026 -1.22291 -1.06318 -0.140607 0.272251 -1.72327 -0.0 0.0 0.0 -0.0 0.0 0.0 1.03398e-13 -1.14733e-13 4.49323e-15 18.9412 8.56417 -1.51658 -18.7148 -16.3525 15.1449 0.000563572 -0.550295 -0.0773284 4.67261e-11 1.46095e-08 -6.52221e-10 8.19722e-11 2.52442e-08 -1.12673e-09 4.67317e-11 1.46095e-08 -6.52231e-10 7.73091 5.47488 0.417314 4.67258e-11 1.46095e-08 -6.52221e-10 2.90554 0.965183 0.102902 4.67309e-11 1.46095e-08 -6.52227e-10 10.2786 0.731801 0.0259123 4.67231e-11 1.46095e-08 -6.52228e-10 2.22167 -0.733487 -0.20892 1.03257e-13 -1.14734e-13 4.17564e-15 -20.9153 10.3437 6.55235 24.9797 -22.7866 -14.43 -0.0286068 -3.75584 0.52377 -2.49246e-11 4.24921e-12 -6.70195e-11 -4.19515e-11 2.193e-11 -1.18227e-10 -2.49287e-11 4.2566e-12 -6.70032e-11 -7.73091 5.47488 -0.417314 -2.49219e-11 4.25333e-12 -6.70219e-11 -2.90554 0.965183 -0.102902 -2.49351e-11 4.25214e-12 -6.70158e-11 -10.2786 0.731801 -0.0259123 -2.49216e-11 4.25261e-12 -6.70202e-11 -2.22167 -0.733487 0.20892 -2.03217e-16 0.0 -3.88251e-19 1.00735 -8.27372 -1.85687 0.0344612 20.3874 0.221426 -0.595636 -0.116581 -1.73824 2.03217e-16 0.0 3.88251e-19 0.0833532 -16.582 -0.398149 0.160995 19.6995 -0.157221 0.148043 -0.949091 -2.97898
3.83986 63.5476 -24.1133 -10.7935 8.2591 -21.6286 4.50617 14.6878 0.0495262 -0.200317 -4.85062 0.255666 -2.1655 -2.50465 -2.1878 -0.267333 0.560342 -3.54508 -0.0 0.0 0.0 -0.0 0.0 0.0 2.11947e-13 -2.47517e-13 7.10345e-15 39.5276 17.586 -3.25944 -28.3167 -29.5427 34.9314 -0.000479672 -1.11361 -0.156512 3.54335e-11 3.09248e-08 -1.38336e-09 6.3912e-11 5.3436e-08 -2.38968e-09 3.54387e-11 3.09248e-08 -1.38336e-09 7.73091 5.47488 0.417314 3.54334e-11 3.09248e-08 -1.38335e-09 2.90554 0.965183 0.102902 3.54363e-11 3.09248e-08 -1.38336e-09 10.2786 0.731801 0.0259123 3.54315e-11 3.09248e-08 -1.38336e-09 2.22167 -0.733487 -0.20892 2.11758e-13 -2.47517e-13 6.76179e-15 -45.7148 20.7962 14.1649 35.9045 -41.5327 -37.8052 0.0163948 -7.709 1.08273 -1.21811e-10 -5.05434e-11 -1.10828e-10 -2.08372e-10 -5.81568e-11 -1.96571e-10 -1.21811e-10 -5.05321e-11 -1.10811e-10 -7.73091 5.47488 -0.417314 -1.21806e-10 -5.05346e-11 -1.10829e-10 -2.90554 0.965183 -0.102902 -1.21819e-10 -5.0538e-11 -1.10824e-10 -10.2786 0.731801 -0.0259123 -1.21809e-10 -5.05371e-11 -1.10829e-10 -2.22167 -0.733487 0.20892 -2.03217e-16 0.0 -3.88251e-19 2.10464 -14.8853 -3.87412 -0.255476 43.9554 0.704522 -0.999851 -4.59298 -3.83921 2.03217e-16 0.0 3.88251e-19 1.46965 -27.9714 -1.02729 0.413773 35.1031 -0.316788 -0.454164 -2.79579 -6.07249
4.02135 63.7846 -21.6202 -10.5377 8.3844 -22.0138 7.09693 21.4186 0.121424 -0.140181 -7.07176 0.407891 -3.22708 -3.66368 -3.19536 -0.37276 0.813799 -5.17026 -0.0 0.0 0.0 -0.0 0.0 0.0 2.95884e-13 -3.44294e-13 1.33803e-14 58.3081 25.6164 -4.99058 -29.1011 -34.1248 56.3437 -0.00276704 -1.65087 -0.232071 1.64043e-12 4.38277e-08 -1.95387e-09 6.6792e-12 7.57311e-08 -3.37532e-09 1.6454e-12 4.38277e-08 -1.95387e-09 7.73091 5.47488 0.417314 1.64032e-12 4.38277e-08 -1.95386e-09 2.90554 0.965183 0.102902 1.64151e-12 4.38277e-08 -1.95387e-09 10.2786 0.731801 0.0259123 1.6391e-12 4.38277e-08 -1.95386e-09 2.22167 -0.733487 -0.20892 2.95655e-13 -3.44293e-13 1.30239e-14 -70.5537 29.2904 22.3119 31.1433 -46.3068 -68.053 0.123599 -11.2637 1.59874 -2.13402e-10 1.1853e-11 -1.98247e-10 -3.6528e-10 6.42442e-11 -3.4985e-10 -2.13398e-10 1.18673e-11 -1.9823e-10 -7.73091 5.47488 -0.417314 -2.13394e-10 1.18654e-11 -1.98248e-10 -2.90554 0.965183 -0.102902 -2.13406e-10 1.18603e-11 -1.98244e-10 -10.2786 0.731801 -0.0259123 -2.134e-10 1.18617e-11 -1.98249e-10 -2.22167 -0.733487 0.20892 -2.03217e-16 0.0 -3.88251e-19 2.5184 -20.8913 -5.8795 -1.34269 65.3083 1.86059 -1.57106 -8.30491 -5.55383 2.03217e-16 0.0 3.88251e-19 2.39483 -37.9481 -1.77418 0.748493 48.8649 -0.551447 -1.1422 -4.34756 -8.80835
4.17159 64.0381 -19.1213 -10.4965 8.3157 -22.3896 8.8384 26.0997 0.289921 -0.156477 -8.61641 0.540571 -4.01016 -4.52062 -3.90497 -0.459849 0.983511 -6.30343 -0.0 0.0 0.0 -0.0 0.0 0.0 3.18288e-13 -3.51055e-13 2.88238e-14 71.4532 31.2455 -6.26434 -28.2346 -32.2684 70.8865 -0.00553111 -2.12303 -0.29851 -8.8404e-11 4.81995e-08 -2.1228e-09 -1.48485e-10 8.3285e-08 -3.6677e-09 -8.83987e-11 4.81995e-08 -2.12281e-09 7.73091 5.47488 0.417314 -8.84042e-11 4.81995e-08 -2.1228e-09 2.90554 0.965183 0.102902 -8.84037e-11 4.81995e-08 -2.1228e-09 10.2786 0.731801 0.0259123 -8.84055e-11 4.81994e-08 -2.12279e-09 2.22167 -0.733487 -0.20892 3.18043e-13 -3.51054e-13 2.84759e-14 -89.7922 34.485 29.2852 27.8327 -41.2182 -86.1338 0.240336 -13.8258 1.9821 -2.91751e-10 3.67222e-10 -3.94694e-10 -4.9841e-10 6.92865e-10 -6.90466e-10 -2.91745e-10 3.67237e-10 -3.94678e-10 -7.73091 5.47488 -0.417314 -2.91742e-10 3.67236e-10 -3.94694e-10 -2.90554 0.965183 -0.102902 -2.91753e-10 3.6723e-10 -3.94692e-10 -10.2786 0.731801 -0.0259123 -2.91749e-10 3.67232e-10 -3.94697e-10 -2.22167 -0.733487 0.20892 -2.03217e-16 0.0 -3.88251e-19 2.10059 -25.4567 -7.58311 -5.7896 81.1097 6.30803 -1.87703 -10.1591 -6.21149 2.03217e-16 0.0 3.88251e-19 2.7013 -44.403 -2.52789 1.11045 58.5231 -0.856948 -1.65281 -5.21291 -10.6221
